<svg xmlns="http://www.w3.org/2000/svg" viewBox="0 0 1024 1024" role="img" aria-labelledby="title desc">
  <title id="title">VibeCast</title>
  <desc id="desc">A rounded app icon with a voice waveform flowing into a text cursor.</desc>
  <defs>
    <clipPath id="app-mask">
      <rect x="64" y="64" width="896" height="896" rx="220"/>
    </clipPath>
  </defs>
  <g clip-path="url(#app-mask)">
    <rect x="64" y="64" width="896" height="896" fill="#0F172A"/>
    <path d="M64 64h896v414C811 419 666 423 532 507 373 607 222 609 64 528V64z" fill="#0D9488"/>
    <path d="M64 724c129-78 271-84 421-17 171 76 313 69 475-36v289H64V724z" fill="#E11D48"/>
    <path d="M674 64h286v310c-86-9-165-39-235-90-54-39-91-103-51-220z" fill="#2563EB"/>
  </g>
  <rect x="64" y="64" width="896" height="896" rx="220" fill="none" stroke="#FFFFFF" stroke-opacity="0.16" stroke-width="24"/>
  <path d="M358 306h308c73 0 132 59 132 132v148c0 73-59 132-132 132H424c-29 0-50 10-65 33l-99 83c-22 15-47-11-32-34l58-90c-37-23-60-69-60-124V438c0-73 59-132 132-132z" fill="#FFFFFF"/>
  <rect x="326" y="442" width="50" height="142" rx="25" fill="#0D9488"/>
  <rect x="410" y="388" width="50" height="250" rx="25" fill="#E11D48"/>
  <rect x="494" y="464" width="50" height="98" rx="25" fill="#2563EB"/>
  <rect x="628" y="388" width="62" height="250" rx="31" fill="#0F172A"/>
</svg>
